<svg width="130" height="39" viewBox="0 0 130 39" fill="none" xmlns="http://www.w3.org/2000/svg">
<g clip-path="url(#clip0_2720_676)">
<rect x="0.5" y="0.5" width="129" height="38" rx="2.5" fill="black" stroke="#A6A6A6"/>
<path d="M40.959 13.8945L43.3496 7.8125H44.0527L46.4434 13.8945H45.5996L44.8613 12.0664H42.541L41.8027 13.8945H40.959ZM43.7012 8.97266L42.7871 11.3984H44.6152L43.7012 8.97266ZM46.6543 9.95703H47.4277L48.6934 13.0859L49.959 9.95703H50.7324L49.0449 13.9648H48.3418L46.6543 9.95703ZM51.3301 11.1172C51.4004 10.7891 51.5527 10.5078 51.7871 10.2734C52.0449 10.0156 52.4199 9.88672 52.9121 9.88672C53.498 9.88672 53.9199 10.0156 54.1777 10.2734C54.4121 10.5078 54.5293 10.7773 54.5293 11.082V13.2969C54.5293 13.5547 54.623 13.7539 54.8105 13.8945H53.9668C53.873 13.8008 53.8262 13.6484 53.8262 13.4375C53.4746 13.7891 53.0293 13.9648 52.4902 13.9648C52.0449 13.9648 51.7051 13.8477 51.4707 13.6133C51.2598 13.4023 51.1543 13.1562 51.1543 12.875C51.1543 12.5469 51.2598 12.2773 51.4707 12.0664C51.7051 11.832 52.0332 11.6797 52.4551 11.6094C52.7363 11.5625 52.9824 11.5039 53.1934 11.4336C53.498 11.3633 53.709 11.293 53.8262 11.2227C53.8262 11.0352 53.7559 10.8711 53.6152 10.7305C53.4746 10.5898 53.2754 10.5195 53.0176 10.5195C52.6895 10.5195 52.4551 10.5898 52.3145 10.7305C52.2207 10.8242 52.1504 10.9531 52.1035 11.1172H51.3301ZM53.8262 11.8906C53.6855 11.9375 53.5566 11.9727 53.4395 11.9961C53.041 12.0898 52.7363 12.1602 52.5254 12.207C52.3379 12.2539 52.1973 12.3242 52.1035 12.418C51.9863 12.5352 51.9277 12.6641 51.9277 12.8047C51.9277 12.9688 51.9863 13.1094 52.1035 13.2266C52.1738 13.2969 52.3262 13.332 52.5605 13.332C52.959 13.332 53.2871 13.2031 53.5449 12.9453C53.709 12.7812 53.8027 12.6641 53.8262 12.5938V11.8906ZM55.7246 7.91797H56.4277V8.83203H55.7246V7.91797ZM55.7246 9.95703H56.4277V13.8945H55.7246V9.95703ZM57.623 7.88281H58.3262V13.8945H57.623V7.88281ZM59.416 11.1172C59.4863 10.7891 59.6387 10.5078 59.873 10.2734C60.1309 10.0156 60.5059 9.88672 60.998 9.88672C61.584 9.88672 62.0059 10.0156 62.2637 10.2734C62.498 10.5078 62.6152 10.7773 62.6152 11.082V13.2969C62.6152 13.5547 62.709 13.7539 62.8965 13.8945H62.0527C61.959 13.8008 61.9121 13.6484 61.9121 13.4375C61.5605 13.7891 61.1152 13.9648 60.5762 13.9648C60.1309 13.9648 59.791 13.8477 59.5566 13.6133C59.3457 13.4023 59.2402 13.1562 59.2402 12.875C59.2402 12.5469 59.3457 12.2773 59.5566 12.0664C59.791 11.832 60.1191 11.6797 60.541 11.6094C60.8223 11.5625 61.0684 11.5039 61.2793 11.4336C61.584 11.3633 61.7949 11.293 61.9121 11.2227C61.9121 11.0352 61.8418 10.8711 61.7012 10.7305C61.5605 10.5898 61.3613 10.5195 61.1035 10.5195C60.7754 10.5195 60.541 10.5898 60.4004 10.7305C60.3066 10.8242 60.2363 10.9531 60.1895 11.1172H59.416ZM61.9121 11.8906C61.7715 11.9375 61.6426 11.9727 61.5254 11.9961C61.127 12.0898 60.8223 12.1602 60.6113 12.207C60.4238 12.2539 60.2832 12.3242 60.1895 12.418C60.0723 12.5352 60.0137 12.6641 60.0137 12.8047C60.0137 12.9688 60.0723 13.1094 60.1895 13.2266C60.2598 13.2969 60.4121 13.332 60.6465 13.332C61.0449 13.332 61.373 13.2031 61.6309 12.9453C61.7949 12.7812 61.8887 12.6641 61.9121 12.5938V11.8906ZM63.6699 7.88281H64.373V10.4141C64.6777 10.0391 65.0527 9.85156 65.498 9.85156C65.9668 9.85156 66.3535 10.0039 66.6582 10.3086C67.0332 10.6836 67.2207 11.2227 67.2207 11.9258C67.2207 12.6055 67.0332 13.1328 66.6582 13.5078C66.3535 13.8125 65.9551 13.9648 65.4629 13.9648C64.9473 13.9648 64.584 13.7773 64.373 13.4023V13.8945H63.6699V7.88281ZM65.4629 10.4844C65.1816 10.4844 64.9238 10.6016 64.6895 10.8359C64.4785 11.0469 64.373 11.3398 64.373 11.7148V12.1367C64.373 12.4883 64.4902 12.7812 64.7246 13.0156C64.9355 13.2266 65.1816 13.332 65.4629 13.332C65.6973 13.332 65.8965 13.25 66.0605 13.0859C66.3184 12.8281 66.4473 12.4414 66.4473 11.9258C66.4473 11.3867 66.3301 11 66.0957 10.7656C65.9082 10.5781 65.6973 10.4844 65.4629 10.4844ZM68.2754 7.88281H68.9785V13.8945H68.2754V7.88281ZM69.998 11.9258C69.998 11.293 70.1973 10.7773 70.5957 10.3789C70.9238 10.0508 71.3457 9.88672 71.8613 9.88672C72.3535 9.88672 72.7754 10.0625 73.127 10.4141C73.4551 10.7422 73.6191 11.2461 73.6191 11.9258H70.7715C70.7715 12.418 70.8887 12.7812 71.123 13.0156C71.334 13.2266 71.6035 13.332 71.9316 13.332C72.2598 13.332 72.4941 13.2617 72.6348 13.1211C72.7988 12.957 72.8809 12.7695 72.8809 12.5586H73.6543C73.5605 12.9805 73.4082 13.2969 73.1973 13.5078C72.8926 13.8125 72.4707 13.9648 71.9316 13.9648C71.3691 13.9648 70.9121 13.7891 70.5605 13.4375C70.1855 13.0625 69.998 12.5586 69.998 11.9258ZM71.8262 10.4844C71.5449 10.4844 71.3105 10.5781 71.123 10.7656C70.959 10.9297 70.8535 11.1289 70.8066 11.3633H72.8105C72.8105 11.1289 72.7168 10.918 72.5293 10.7305C72.3652 10.5664 72.1309 10.4844 71.8262 10.4844ZM77.2051 11.9258C77.2051 11.3164 77.4043 10.8125 77.8027 10.4141C78.1543 10.0625 78.5879 9.88672 79.1035 9.88672C79.6191 9.88672 80.0527 10.0625 80.4043 10.4141C80.8027 10.8125 81.002 11.3164 81.002 11.9258C81.002 12.5352 80.8027 13.0391 80.4043 13.4375C80.0527 13.7891 79.6191 13.9648 79.1035 13.9648C78.5879 13.9648 78.1543 13.7891 77.8027 13.4375C77.4043 13.0391 77.2051 12.5352 77.2051 11.9258ZM79.1035 10.5195C78.8223 10.5195 78.5879 10.6133 78.4004 10.8008C78.1191 11.082 77.9785 11.457 77.9785 11.9258C77.9785 12.3945 78.1074 12.7578 78.3652 13.0156C78.5762 13.2266 78.8223 13.332 79.1035 13.332C79.3848 13.332 79.6309 13.2266 79.8418 13.0156C80.0996 12.7578 80.2285 12.3945 80.2285 11.9258C80.2285 11.457 80.0879 11.082 79.8066 10.8008C79.6191 10.6133 79.3848 10.5195 79.1035 10.5195ZM82.6191 13.8945H81.916V9.95703H82.6191V10.6602C83.041 10.1445 83.4863 9.88672 83.9551 9.88672C84.4238 9.88672 84.7988 10.0273 85.0801 10.3086C85.2676 10.4961 85.3613 10.7188 85.3613 10.9766V13.8945H84.6582V11.1875C84.6582 10.9766 84.5879 10.8008 84.4473 10.6602C84.3066 10.5195 84.1074 10.4492 83.8496 10.4492C83.6152 10.4492 83.3809 10.5664 83.1465 10.8008C82.7949 11.1523 82.6191 11.5273 82.6191 11.9258V13.8945ZM89.4746 8.58594H90.1777V9.95703H91.373V10.5195H90.1777V12.8047C90.1777 12.9453 90.2363 13.0742 90.3535 13.1914C90.4473 13.2852 90.5996 13.332 90.8105 13.332C91.1387 13.332 91.4316 13.25 91.6895 13.0859V13.7539C91.4316 13.8945 91.1504 13.9648 90.8457 13.9648C90.377 13.9648 90.0371 13.8594 89.8262 13.6484C89.5918 13.4141 89.4746 13.1562 89.4746 12.875V10.5195H88.6309V9.95703H89.4746V8.58594ZM92.3223 7.88281H93.0254V10.6602C93.4238 10.1445 93.8574 9.88672 94.3262 9.88672C94.8184 9.88672 95.1816 10.0039 95.416 10.2383C95.6504 10.4727 95.7676 10.7539 95.7676 11.082V13.8945H95.0645V11.2578C95.0645 11 94.9824 10.7891 94.8184 10.625C94.7012 10.5078 94.5371 10.4492 94.3262 10.4492C94.0684 10.4492 93.834 10.5547 93.623 10.7656C93.3652 11.0234 93.166 11.3867 93.0254 11.8555V13.8945H92.3223V7.88281ZM96.7168 11.9258C96.7168 11.293 96.916 10.7773 97.3145 10.3789C97.6426 10.0508 98.0645 9.88672 98.5801 9.88672C99.0723 9.88672 99.4941 10.0625 99.8457 10.4141C100.174 10.7422 100.338 11.2461 100.338 11.9258H97.4902C97.4902 12.418 97.6074 12.7812 97.8418 13.0156C98.0527 13.2266 98.3223 13.332 98.6504 13.332C98.9785 13.332 99.2129 13.2617 99.3535 13.1211C99.5176 12.957 99.5996 12.7695 99.5996 12.5586H100.373C100.279 12.9805 100.127 13.2969 99.916 13.5078C99.6113 13.8125 99.1895 13.9648 98.6504 13.9648C98.0879 13.9648 97.6309 13.7891 97.2793 13.4375C96.9043 13.0625 96.7168 12.5586 96.7168 11.9258ZM98.5449 10.4844C98.2637 10.4844 98.0293 10.5781 97.8418 10.7656C97.6777 10.9297 97.5723 11.1289 97.5254 11.3633H99.5293C99.5293 11.1289 99.4355 10.918 99.248 10.7305C99.084 10.5664 98.8496 10.4844 98.5449 10.4844Z" fill="white"/>
<path d="M39.6562 29.7891L44.4375 17.625H45.8438L50.625 29.7891H48.9375L47.4609 26.1328H42.8203L41.3438 29.7891H39.6562ZM45.1406 19.9453L43.3125 24.7969H46.9688L45.1406 19.9453ZM53.1562 32.3906H51.75V21.9141H53.1562V22.8281C53.7188 22.125 54.4453 21.7734 55.3359 21.7734C56.3203 21.7734 57.1172 22.0781 57.7266 22.6875C58.4766 23.4375 58.8516 24.4922 58.8516 25.8516C58.8516 27.2578 58.4766 28.3359 57.7266 29.0859C57.1172 29.6953 56.3203 30 55.3359 30C54.3516 30 53.625 29.625 53.1562 28.875V32.3906ZM55.3359 23.0391C54.7734 23.0391 54.2812 23.25 53.8594 23.6719C53.3906 24.1406 53.1562 24.7031 53.1562 25.3594V26.3438C53.1562 27 53.4141 27.5859 53.9297 28.1016C54.3516 28.5234 54.8203 28.7344 55.3359 28.7344C55.8047 28.7344 56.2031 28.5703 56.5312 28.2422C57.0469 27.7266 57.3047 26.9297 57.3047 25.8516C57.3047 24.8203 57.0703 24.0703 56.6016 23.6016C56.2266 23.2266 55.8047 23.0391 55.3359 23.0391ZM62.0859 32.3906H60.6797V21.9141H62.0859V22.8281C62.6484 22.125 63.375 21.7734 64.2656 21.7734C65.25 21.7734 66.0469 22.0781 66.6562 22.6875C67.4062 23.4375 67.7812 24.4922 67.7812 25.8516C67.7812 27.2578 67.4062 28.3359 66.6562 29.0859C66.0469 29.6953 65.25 30 64.2656 30C63.2812 30 62.5547 29.625 62.0859 28.875V32.3906ZM64.2656 23.0391C63.7031 23.0391 63.2109 23.25 62.7891 23.6719C62.3203 24.1406 62.0859 24.7031 62.0859 25.3594V26.3438C62.0859 27 62.3438 27.5859 62.8594 28.1016C63.2812 28.5234 63.75 28.7344 64.2656 28.7344C64.7344 28.7344 65.1328 28.5703 65.4609 28.2422C65.9766 27.7266 66.2344 26.9297 66.2344 25.8516C66.2344 24.8203 66 24.0703 65.5312 23.6016C65.1562 23.2266 64.7344 23.0391 64.2656 23.0391ZM75.5156 20.9297C75.5156 20.0391 75.8438 19.2656 76.5 18.6094C77.1562 17.9531 78.1641 17.625 79.5234 17.625C80.9766 17.625 82.0781 18 82.8281 18.75C83.4844 19.4062 83.8125 20.1797 83.8125 21.0703H82.1953C82.1953 20.5078 82.0078 20.0391 81.6328 19.6641C81.2109 19.2422 80.5547 19.0312 79.6641 19.0312C78.6797 19.0312 78 19.2188 77.625 19.5938C77.2969 19.9219 77.1328 20.2969 77.1328 20.7188C77.1328 21.1406 77.2266 21.4453 77.4141 21.6328C77.6484 21.8672 78.0703 22.1016 78.6797 22.3359C79.7578 22.8047 80.9766 23.3438 82.3359 23.9531C82.7109 24.0938 83.0625 24.3281 83.3906 24.6562C83.9062 25.1719 84.1641 25.7812 84.1641 26.4844C84.1641 27.4219 83.8359 28.2188 83.1797 28.875C82.4766 29.5781 81.3281 29.9297 79.7344 29.9297C78.1875 29.9297 76.9922 29.5078 76.1484 28.6641C75.5391 28.0547 75.2344 27.1641 75.2344 25.9922H76.8516C76.8516 26.8359 77.0391 27.4453 77.4141 27.8203C77.9297 28.3359 78.7266 28.5938 79.8047 28.5938C80.7891 28.5938 81.5156 28.3594 81.9844 27.8906C82.3594 27.5156 82.5469 27.1406 82.5469 26.7656C82.5469 26.3438 82.4062 25.9922 82.125 25.7109C81.8906 25.4766 81.5156 25.2422 81 25.0078C80.5312 24.7734 79.9219 24.4922 79.1719 24.1641C78.3281 23.7891 77.6484 23.4844 77.1328 23.25C76.7578 23.1094 76.4297 22.8984 76.1484 22.6172C75.7266 22.1953 75.5156 21.6328 75.5156 20.9297ZM86.6953 19.1719H88.1016V21.9141H90.4922V23.0391H88.1016V27.6094C88.1016 27.8906 88.2188 28.1484 88.4531 28.3828C88.6406 28.5703 88.9453 28.6641 89.3672 28.6641C90.0234 28.6641 90.6094 28.5 91.125 28.1719V29.5078C90.6094 29.7891 90.0469 29.9297 89.4375 29.9297C88.5 29.9297 87.8203 29.7188 87.3984 29.2969C86.9297 28.8281 86.6953 28.3125 86.6953 27.75V23.0391H85.0078V21.9141H86.6953V19.1719ZM92.1094 25.8516C92.1094 24.6328 92.5078 23.625 93.3047 22.8281C94.0078 22.125 94.875 21.7734 95.9062 21.7734C96.9375 21.7734 97.8047 22.125 98.5078 22.8281C99.3047 23.625 99.7031 24.6328 99.7031 25.8516C99.7031 27.0703 99.3047 28.0781 98.5078 28.875C97.8047 29.5781 96.9375 29.9297 95.9062 29.9297C94.875 29.9297 94.0078 29.5781 93.3047 28.875C92.5078 28.0781 92.1094 27.0703 92.1094 25.8516ZM95.9062 23.0391C95.3438 23.0391 94.875 23.2266 94.5 23.6016C93.9375 24.1641 93.6562 24.9141 93.6562 25.8516C93.6562 26.7891 93.9141 27.5156 94.4297 28.0312C94.8516 28.4531 95.3438 28.6641 95.9062 28.6641C96.4688 28.6641 96.9609 28.4531 97.3828 28.0312C97.8984 27.5156 98.1562 26.7891 98.1562 25.8516C98.1562 24.9141 97.875 24.1641 97.3125 23.6016C96.9375 23.2266 96.4688 23.0391 95.9062 23.0391ZM103.641 22.8984C104.391 22.1484 105.398 21.7734 106.664 21.7734V23.3203C106.477 23.2734 106.219 23.25 105.891 23.25C105.188 23.25 104.531 23.5547 103.922 24.1641C103.406 24.6797 103.055 25.2188 102.867 25.7812V29.7891H101.461V21.9141H102.867V23.8828C103.102 23.5078 103.359 23.1797 103.641 22.8984ZM107.578 25.8516C107.578 24.5859 107.977 23.5547 108.773 22.7578C109.43 22.1016 110.273 21.7734 111.305 21.7734C112.289 21.7734 113.133 22.125 113.836 22.8281C114.492 23.4844 114.82 24.4922 114.82 25.8516H109.125C109.125 26.8359 109.359 27.5625 109.828 28.0312C110.25 28.4531 110.789 28.6641 111.445 28.6641C112.102 28.6641 112.57 28.5234 112.852 28.2422C113.18 27.9141 113.344 27.5391 113.344 27.1172H114.891C114.703 27.9609 114.398 28.5938 113.977 29.0156C113.367 29.625 112.523 29.9297 111.445 29.9297C110.32 29.9297 109.406 29.5781 108.703 28.875C107.953 28.125 107.578 27.1172 107.578 25.8516ZM111.234 22.9688C110.672 22.9688 110.203 23.1562 109.828 23.5312C109.5 23.8594 109.289 24.2578 109.195 24.7266H113.203C113.203 24.2578 113.016 23.8359 112.641 23.4609C112.312 23.1328 111.844 22.9688 111.234 22.9688Z" fill="white"/>
<g clip-path="url(#clip1_2720_676)">
<path d="M30.6302 24.7065C30.0398 26.0137 29.7574 26.5982 28.9992 27.7533C27.9398 29.3666 26.444 31.3797 24.5948 31.3935C22.9499 31.4073 22.5254 30.3203 20.2931 30.3381C18.0608 30.3489 17.5958 31.4133 15.9489 31.3965C14.0997 31.3797 12.6839 29.566 11.6235 27.9557C8.65866 23.4388 8.34568 18.1448 10.1781 15.328C11.4745 13.3307 13.5261 12.1578 15.4523 12.1578C17.4141 12.1578 18.6472 13.2359 20.2694 13.2359C21.8432 13.2359 22.8018 12.1548 25.0707 12.1548C26.7866 12.1548 28.6013 13.0898 29.8976 14.7031C25.6561 17.0272 26.3453 23.0853 30.6302 24.7065ZM23.3488 10.352C24.1742 9.29262 24.8001 7.79784 24.5731 6.27344C23.2264 6.36526 21.6516 7.2252 20.7315 8.33889C19.8982 9.35285 19.2071 10.8595 19.4766 12.3167C20.9457 12.3641 22.4662 11.4884 23.3488 10.352Z" fill="white"/>
</g>
</g>
<defs>
<clipPath id="clip0_2720_676">
<rect width="130" height="39" fill="white"/>
</clipPath>
<clipPath id="clip1_2720_676">
<rect width="25.67" height="25.67" fill="white" transform="translate(7 6)"/>
</clipPath>
</defs>
</svg>
