<svg width="13" height="14" viewBox="0 0 13 14" fill="none" xmlns="http://www.w3.org/2000/svg">
<path d="M1.37477 0H11.8141C11.8713 0 11.928 0.0111202 11.9809 0.0327258C12.0338 0.0543314 12.0818 0.0859991 12.1223 0.125921C12.1628 0.165843 12.1949 0.213237 12.2168 0.265398C12.2387 0.317558 12.25 0.373463 12.25 0.429921V11.9606H0.78239L0 12.8646V1.35591C0 0.996297 0.144842 0.651417 0.402661 0.397136C0.660481 0.142854 1.01016 0 1.37477 0Z" fill="#FAC24C"/>
<path d="M11.5689 12.0488H0.660156V13.4532H11.5689V12.0488Z" fill="#CCD6E7"/>
<path d="M11.8593 13.9994H1.24119C0.915114 13.9994 0.602393 13.8717 0.371822 13.6443C0.141252 13.4168 0.0117188 13.1084 0.0117188 12.7868C0.0117187 12.4652 0.141252 12.1568 0.371822 11.9294C0.602393 11.702 0.915114 11.5742 1.24119 11.5742H11.8593C11.9631 11.5742 12.0626 11.6149 12.136 11.6872C12.2093 11.7596 12.2505 11.8577 12.2505 11.96C12.2505 12.0624 12.2093 12.1605 12.136 12.2329C12.0626 12.3052 11.9631 12.3459 11.8593 12.3459H1.24119C1.12262 12.3459 1.0089 12.3923 0.925056 12.475C0.841212 12.5577 0.794109 12.6699 0.794109 12.7868C0.794109 12.9038 0.841212 13.0159 0.925056 13.0986C1.0089 13.1813 1.12262 13.2278 1.24119 13.2278H11.8593C11.9631 13.2278 12.0626 13.2684 12.136 13.3408C12.2093 13.4131 12.2505 13.5113 12.2505 13.6136C12.2505 13.7159 12.2093 13.8141 12.136 13.8864C12.0626 13.9588 11.9631 13.9994 11.8593 13.9994Z" fill="#FC6953"/>
<path d="M9.30061 10.0529H2.91854C2.81479 10.0529 2.71529 10.0123 2.64192 9.9399C2.56856 9.86754 2.52734 9.7694 2.52734 9.66708C2.52734 9.56475 2.56856 9.46661 2.64192 9.39426C2.71529 9.3219 2.81479 9.28125 2.91854 9.28125H9.30061C9.40436 9.28125 9.50386 9.3219 9.57723 9.39426C9.65059 9.46661 9.6918 9.56475 9.6918 9.66708C9.6918 9.7694 9.65059 9.86754 9.57723 9.9399C9.50386 10.0123 9.40436 10.0529 9.30061 10.0529Z" fill="#FC6953"/>
<path d="M9.55502 3.36177C9.55502 3.37279 9.56619 3.37279 9.57737 3.38382L9.95739 3.80271C10.014 3.84929 10.0565 3.9103 10.0803 3.97909C10.0885 4.01243 10.0898 4.04706 10.084 4.08089C10.0782 4.11472 10.0655 4.14704 10.0467 4.1759C10.0279 4.20475 10.0034 4.22955 9.97457 4.24877C9.94577 4.268 9.9133 4.28126 9.87915 4.28775C9.81861 4.30648 9.75362 4.30591 9.69342 4.28612C9.63322 4.26633 9.58088 4.22833 9.54384 4.17752L9.24206 3.79169L8.94028 3.40586L8.91793 3.38382V3.41689C8.91793 3.61531 8.91793 3.80271 8.90675 4.00114V4.08933C8.89145 4.15047 8.85538 4.20461 8.80454 4.24272C8.7537 4.28083 8.69116 4.30061 8.62732 4.29878C8.59021 4.30034 8.55317 4.29427 8.51855 4.28098C8.48393 4.26768 8.45249 4.24743 8.42622 4.22153C8.39996 4.19562 8.37943 4.16461 8.36595 4.13047C8.35246 4.09632 8.34632 4.05979 8.3479 4.02319V2.27043C8.35079 2.19927 8.3815 2.13197 8.43359 2.08265C8.48568 2.03332 8.55511 2.00581 8.62732 2.00586H9.30912C9.46813 2.00543 9.6237 2.05146 9.7562 2.13815C9.83758 2.19061 9.90595 2.26045 9.95625 2.3425C10.0066 2.42456 10.0375 2.51672 10.0468 2.61216C10.0693 2.75528 10.0458 2.90174 9.97974 3.03106C9.94317 3.10481 9.89152 3.17031 9.82805 3.22343C9.76457 3.27655 9.69064 3.31614 9.6109 3.33972H9.55502V3.36177ZM8.91793 2.97594H9.25324C9.28938 2.97697 9.32528 2.96975 9.35813 2.95484C9.39098 2.93993 9.41989 2.91774 9.44261 2.89C9.46533 2.86226 9.48124 2.82971 9.48911 2.7949C9.49697 2.76009 9.49658 2.72396 9.48795 2.68933C9.47403 2.64059 9.44498 2.59738 9.40489 2.56575C9.3648 2.53412 9.31568 2.51565 9.26441 2.51295H8.91793V2.97594Z" fill="#FC6953"/>
<path d="M4.81659 2.84391V3.40612C4.81751 3.55019 4.7835 3.69239 4.71739 3.82086C4.65129 3.94934 4.555 4.06037 4.43657 4.1447C4.2945 4.24346 4.12892 4.30422 3.95596 4.32108C3.75141 4.3515 3.54232 4.32477 3.3524 4.24391C3.20616 4.18752 3.07808 4.09323 2.98168 3.97099C2.88528 3.84875 2.82414 3.7031 2.80473 3.54943C2.78573 3.47752 2.77819 3.40314 2.78237 3.32895V2.28171C2.78054 2.24462 2.78431 2.20747 2.79355 2.17147C2.81183 2.10919 2.85266 2.0557 2.90829 2.02115C2.96392 1.9866 3.03048 1.97341 3.09533 1.98407C3.1645 1.98971 3.22877 2.02157 3.27462 2.07296C3.32048 2.12435 3.34435 2.19127 3.34122 2.25966V3.33998C3.33688 3.45321 3.37691 3.56374 3.45299 3.64864C3.50174 3.70221 3.56249 3.74383 3.6304 3.77019C3.69831 3.79656 3.77152 3.80695 3.84422 3.80052C3.91691 3.7941 3.98708 3.77105 4.04917 3.73321C4.11125 3.69536 4.16353 3.64376 4.20185 3.5825C4.23818 3.50696 4.2536 3.42329 4.24656 3.33998C4.24656 2.98722 4.24656 2.64549 4.25774 2.29273C4.2559 2.252 4.25966 2.21121 4.26891 2.17147C4.28719 2.10919 4.32803 2.0557 4.38366 2.02115C4.43929 1.9866 4.50585 1.97341 4.57069 1.98407C4.63696 1.99194 4.69819 2.02294 4.74329 2.07146C4.78839 2.11999 4.81439 2.18284 4.81659 2.24864V2.84391Z" fill="#FC6953"/>
<path d="M5.82224 1.95128C5.96656 1.94986 6.11011 1.97222 6.24696 2.01742C6.31882 2.04308 6.3838 2.08455 6.43697 2.13868C6.46478 2.17114 6.48426 2.20972 6.49375 2.25116C6.50324 2.29261 6.50248 2.3357 6.49151 2.37679C6.48055 2.41789 6.45971 2.45577 6.43076 2.48724C6.40181 2.5187 6.36561 2.54283 6.3252 2.55758C6.25499 2.57595 6.18071 2.5721 6.11284 2.54656L5.87812 2.49144C5.80203 2.47461 5.72232 2.48641 5.65458 2.52451C5.63255 2.53695 5.61391 2.55448 5.60028 2.57561C5.58665 2.59674 5.57843 2.62082 5.57634 2.64577C5.57758 2.6682 5.58574 2.68972 5.59972 2.70745C5.6137 2.72518 5.63285 2.73828 5.65458 2.74498C5.74004 2.78764 5.83 2.82091 5.92283 2.8442C6.05326 2.88614 6.18029 2.93773 6.30285 2.99853C6.39988 3.04428 6.4818 3.11618 6.53916 3.20591C6.59651 3.29564 6.62696 3.39954 6.62698 3.50561C6.64009 3.64967 6.61303 3.79452 6.54874 3.92451C6.50886 4.01066 6.45006 4.087 6.37661 4.14801C6.30316 4.20902 6.21688 4.25316 6.12402 4.27727C5.80689 4.37783 5.46269 4.35414 5.16279 4.21113C5.0887 4.19025 5.02503 4.14315 4.98396 4.07884C4.95121 4.03386 4.93359 3.97989 4.93359 3.92451C4.93359 3.86914 4.95121 3.81516 4.98396 3.77018C5.01402 3.72635 5.05671 3.69242 5.10652 3.67277C5.15633 3.65312 5.21097 3.64865 5.26339 3.65994L5.52046 3.74813C5.62868 3.78205 5.74288 3.79331 5.85577 3.7812C5.93401 3.75916 6.00107 3.72609 6.01225 3.6379C6.02335 3.61369 6.02608 3.58655 6.02002 3.56066C6.01397 3.53477 5.99945 3.51155 5.97872 3.49459L5.84459 3.41742L5.54281 3.31821C5.4309 3.28858 5.32503 3.24009 5.22986 3.1749C5.16446 3.13561 5.10857 3.08269 5.0661 3.01985C5.02362 2.95701 4.99559 2.88577 4.98396 2.81113C4.96025 2.65724 4.9836 2.49988 5.05102 2.35916C5.09511 2.2707 5.15777 2.19252 5.23486 2.1298C5.31194 2.06707 5.40168 2.02125 5.4981 1.99538C5.60326 1.96459 5.71255 1.94972 5.82224 1.95128Z" fill="#FC6953"/>
<path d="M7.37558 2.51377V2.87755H7.94561C8.01379 2.88632 8.07565 2.92145 8.11757 2.9752C8.15949 3.02895 8.17804 3.09692 8.16915 3.16416C8.16026 3.23141 8.12465 3.29241 8.07015 3.33376C8.01565 3.37511 7.94673 3.39341 7.87855 3.38464H7.38676V3.74842H8.01267C8.08085 3.75719 8.14271 3.79231 8.18463 3.84606C8.22655 3.89981 8.24511 3.96779 8.23621 4.03503C8.22732 4.10227 8.19171 4.16328 8.13721 4.20463C8.08271 4.24597 8.01379 4.26427 7.94561 4.2555H7.08498C7.01755 4.25573 6.9525 4.23091 6.90279 4.18596C6.85308 4.14102 6.82235 4.07926 6.81673 4.01298V2.28228C6.81339 2.21561 6.83573 2.15016 6.87926 2.09905C6.92279 2.04794 6.98429 2.01495 7.05145 2.00668H7.91208C7.96904 2.00204 8.02585 2.01711 8.07276 2.04929C8.11968 2.08148 8.15376 2.12878 8.16915 2.18306C8.18435 2.22116 8.18951 2.26243 8.18417 2.30303C8.17884 2.34363 8.16316 2.38224 8.13861 2.41525C8.11407 2.44827 8.08144 2.47462 8.04379 2.49184C8.00613 2.50907 7.96467 2.51661 7.92326 2.51377H7.37558Z" fill="#FC6953"/>
<path d="M3.53105 6.65885H3.22927C3.19078 6.6616 3.15216 6.65537 3.11656 6.64067C3.08095 6.62597 3.04936 6.60321 3.02433 6.57423C2.9993 6.54525 2.98153 6.51086 2.97248 6.47385C2.96342 6.43685 2.96333 6.39826 2.9722 6.36121C2.97789 6.30176 3.00664 6.24677 3.05247 6.20774C3.09829 6.16871 3.15763 6.14865 3.2181 6.15176H3.86636C3.92969 6.1517 3.9906 6.17573 4.0364 6.21885C4.08221 6.26197 4.10938 6.32087 4.11226 6.38326C4.14363 6.62073 4.0924 6.86168 3.96696 7.06672C3.87861 7.21764 3.75152 7.34294 3.59848 7.43002C3.44544 7.51711 3.27184 7.56289 3.09515 7.56278C2.8675 7.56967 2.6426 7.5123 2.44688 7.39743C2.32394 7.32824 2.21679 7.23476 2.13217 7.12285C2.04755 7.01093 1.98726 6.88299 1.95509 6.74704C1.90716 6.57595 1.89434 6.39714 1.91737 6.2211C1.9404 6.04506 1.99883 5.87532 2.08922 5.72184C2.17111 5.57237 2.28976 5.44559 2.43428 5.35314C2.5788 5.26068 2.74455 5.20552 2.91632 5.1927C3.16421 5.15692 3.4173 5.19532 3.64282 5.30294C3.75224 5.34338 3.84606 5.41663 3.91107 5.51239C3.95676 5.57231 3.97682 5.6475 3.96696 5.72184C3.96416 5.75229 3.95527 5.78189 3.9408 5.80894C3.92634 5.83599 3.90659 5.85994 3.88268 5.87941C3.85878 5.89888 3.83121 5.9135 3.80155 5.9224C3.77189 5.9313 3.74073 5.93432 3.70988 5.93129L3.55341 5.87617L3.3634 5.75491C3.27082 5.70528 3.16569 5.68304 3.06062 5.69086C2.95555 5.69868 2.85499 5.73623 2.77102 5.799C2.66374 5.86727 2.58759 5.974 2.55865 6.09664C2.48529 6.30972 2.49728 6.5424 2.59218 6.74704C2.62265 6.81368 2.66707 6.87321 2.72253 6.92172C2.77799 6.97022 2.84323 7.0066 2.91396 7.02847C2.98469 7.05033 3.05931 7.05719 3.13292 7.04858C3.20653 7.03997 3.27746 7.0161 3.34104 6.97853C3.39173 6.94443 3.43475 6.90041 3.46744 6.84921C3.50013 6.798 3.52178 6.74071 3.53105 6.68089V6.65885Z" fill="#FC6953"/>
<path d="M7.38785 6.37203V5.52321C7.38416 5.48369 7.38953 5.44387 7.40356 5.40668C7.41759 5.36949 7.43992 5.33589 7.4689 5.30837C7.49788 5.28085 7.53276 5.2601 7.57097 5.24768C7.60918 5.23525 7.64973 5.23147 7.68963 5.23659H8.30436C8.56148 5.23146 8.81158 5.31952 9.00727 5.48409C9.20297 5.64865 9.33067 5.87829 9.36618 6.12951C9.41761 6.42288 9.37051 6.72479 9.23206 6.98935C9.15181 7.13366 9.03605 7.25575 8.89541 7.34436C8.75478 7.43298 8.59381 7.48527 8.42731 7.49644H7.66727C7.59317 7.49644 7.52209 7.4674 7.46969 7.41572C7.41729 7.36403 7.38785 7.29394 7.38785 7.22084V6.37203ZM7.95788 6.98935H8.30436C8.39642 6.98366 8.48473 6.95135 8.55828 6.89646C8.63183 6.84156 8.68735 6.76652 8.71791 6.68069C8.7615 6.58374 8.78494 6.47917 8.78686 6.37314C8.78878 6.26711 8.76914 6.16178 8.72909 6.06336C8.70466 5.98014 8.6553 5.90614 8.58749 5.85106C8.51968 5.79598 8.43657 5.76239 8.34907 5.7547H7.95788V6.98935Z" fill="#FC6953"/>
<path d="M6.34717 6.07439V6.6366C6.34632 6.7788 6.31146 6.9188 6.24543 7.04522C6.1794 7.17164 6.08406 7.28091 5.96715 7.36415C5.82759 7.46922 5.66123 7.53409 5.48654 7.55156C5.282 7.58198 5.0729 7.55525 4.88298 7.47439C4.73658 7.41665 4.60801 7.3222 4.50999 7.20039C4.41197 7.07858 4.3479 6.93364 4.32413 6.7799C4.31485 6.7031 4.31111 6.62574 4.31296 6.54841V5.51219C4.31113 5.4751 4.31489 5.43795 4.32413 5.40195C4.34253 5.33742 4.38507 5.28219 4.44316 5.2474C4.50125 5.21262 4.57056 5.20088 4.63709 5.21455C4.6709 5.21732 4.70381 5.22666 4.73394 5.24204C4.76407 5.25742 4.79081 5.27852 4.81263 5.30414C4.83445 5.32976 4.85091 5.35938 4.86107 5.39131C4.87122 5.42323 4.87487 5.45682 4.87181 5.49014V6.57045C4.87099 6.6813 4.90625 6.78949 4.9724 6.87912C5.01615 6.92637 5.06981 6.96366 5.12964 6.98841C5.18947 7.01316 5.25405 7.02476 5.31889 7.02242C5.39937 7.03013 5.48039 7.0144 5.5519 6.97718C5.62342 6.93995 5.6823 6.88286 5.72126 6.81297C5.76094 6.7383 5.7802 6.65471 5.77715 6.57045V5.52321C5.77815 5.48189 5.78569 5.44097 5.7995 5.40195C5.81546 5.33828 5.85581 5.28319 5.91208 5.24825C5.96836 5.2133 6.03617 5.20122 6.10128 5.21455C6.16848 5.22009 6.2311 5.25039 6.27667 5.29942C6.32223 5.34845 6.34741 5.41261 6.34717 5.47912V6.07439Z" fill="#FC6953"/>
<path d="M10.1372 5.74273V6.10651H10.6402C10.6785 6.10387 10.7168 6.11053 10.7519 6.1259C10.787 6.14128 10.8177 6.1649 10.8414 6.1947C10.8715 6.23582 10.8895 6.28434 10.8934 6.33491C10.8974 6.38548 10.8871 6.43614 10.8637 6.48132C10.8452 6.52366 10.8136 6.55919 10.7735 6.58293C10.7334 6.60666 10.6868 6.61738 10.6402 6.6136C10.4837 6.62462 10.3272 6.6136 10.1819 6.6136H10.1372V6.9884H10.7743C10.8316 7.00275 10.8822 7.03615 10.9174 7.08296C10.9527 7.12978 10.9705 7.18715 10.9679 7.24541C10.9652 7.30367 10.9423 7.35926 10.903 7.4028C10.8637 7.44635 10.8103 7.47519 10.752 7.48447H9.85779C9.78369 7.48447 9.71261 7.45543 9.66021 7.40375C9.60781 7.35207 9.57837 7.28197 9.57837 7.20888V5.51124C9.57679 5.47463 9.58293 5.4381 9.59641 5.40396C9.6099 5.36982 9.63042 5.33881 9.65669 5.3129C9.68296 5.28699 9.7144 5.26675 9.74902 5.25345C9.78364 5.24015 9.82068 5.23409 9.85779 5.23565H10.6737C10.7343 5.22936 10.795 5.24654 10.843 5.28357C10.8909 5.32059 10.9224 5.37456 10.9308 5.43407C10.9414 5.47091 10.943 5.50969 10.9355 5.54726C10.928 5.58483 10.9116 5.62012 10.8876 5.65023C10.8636 5.68033 10.8328 5.70441 10.7975 5.72049C10.7623 5.73657 10.7237 5.74419 10.6849 5.74273H10.1372Z" fill="#FC6953"/>
<path d="M6.58309 6.37156V5.51172C6.58134 5.47827 6.58511 5.44476 6.59427 5.41251C6.61026 5.34818 6.65013 5.29211 6.706 5.25537C6.76188 5.21863 6.82969 5.2039 6.89605 5.21408C6.96325 5.21963 7.02587 5.24993 7.07144 5.29896C7.117 5.34799 7.14218 5.41214 7.14194 5.47865V7.28653C7.13913 7.32131 7.12936 7.35521 7.11321 7.38626C7.09705 7.4173 7.07483 7.44489 7.04782 7.46744C7.02081 7.48998 6.98954 7.50703 6.95582 7.5176C6.9221 7.52817 6.88659 7.53206 6.85134 7.52905C6.81469 7.53076 6.77809 7.52471 6.744 7.51132C6.70991 7.49792 6.67913 7.47748 6.65372 7.45137C6.6283 7.42527 6.60885 7.39409 6.59667 7.35996C6.58449 7.32582 6.57986 7.2895 6.58309 7.25345C6.57192 6.95582 6.58309 6.65818 6.58309 6.37156Z" fill="#FC6953"/>
</svg>
